{"title":"Out.Of.The.Blue.2006.DVDRiP.x264.AC3.NORDIC.mkv.Zen_Bud","uid":5810944,"size":1450802396,"categoryP":"video","categoryS":"movies","magnet":"?xt=urn:btih:8c62b568b3bf30137117263c73cd210f958eca13&amp;dn=Out.Of.The.Blue.2006.DVDRiP.x264.AC3.NORDIC.mkv.Zen_Bud&amp;tr=udp%3A%2F%2Ftracker.openbittorrent.com%3A80&amp;tr=udp%3A%2F%2Fopen.demonii.com%3A1337&amp;tr=udp%3A%2F%2Ftracker.coppersurfer.tk%3A6969&amp;tr=udp%3A%2F%2Fexodus.desync.com%3A6969","seeders":0,"leechers":0,"uploader":"Zen_Bud","files":-1,"time":1283629209,"description":"\n**** Out.Of.The.Blue.2006.DVDRiP.x264.AC3.NORDIC.mkv.Zen_Bud ****\n\nFormat                           : Matroska\nFile size                        : 1.35 GiB\nDuration                         : 1h 38mn\nOverall bit rate                 : 1 954 Kbps\nWriting application              : HandBrake svn3506\nWriting library                  : libmkv 0.6.4.1\n\nVideo\n\nFormat                           : AVC\nDuration                         : 1h 38mn\nBit rate                         : 1 467 Kbps\nWidth                            : 720 pixels\nHeight                           : 552 pixels\nStream size                      : 1.01 GiB (75%)\nWriting library                  : x264 core 104\n\nAudio\n\nFormat                           : AC-3\nCodec ID                         : A_AC3\nDuration                         : 1h 38mn\nBit rate                         : 448 Kbps\nChannel(s)                       : 6 channels\nChannel positions                : Front: L C R, Side: L R, LFE\nSampling rate                    : 48.0 KHz\nBit depth                        : 16 bits\nStream size                      : 317 MiB (23%)\nLanguage                         : English\n\nText #1\nLanguage                         : Finnish\n\nText #2\nLanguage                         : Norwegian\n\nText #3\nLanguage                         : Swedish\n\nText #4\nLanguage                         : Danish\n\nMenu\n00:00:00.000                     : Chapter  1\n00:08:02.400                     : Chapter  2\n\n\n","torrent":{"xt":"urn:btih:8c62b568b3bf30137117263c73cd210f958eca13","amp;dn":"Out.Of.The.Blue.2006.DVDRiP.x264.AC3.NORDIC.mkv.Zen_Bud","amp;tr":["udp%3A%2F%2Ftracker.openbittorrent.com%3A80","udp%3A%2F%2Fopen.demonii.com%3A1337","udp%3A%2F%2Ftracker.coppersurfer.tk%3A6969","udp%3A%2F%2Fexodus.desync.com%3A6969"],"infoHash":"8c62b568b3bf30137117263c73cd210f958eca13","infoHashBuffer":{"type":"Buffer","data":[140,98,181,104,179,191,48,19,113,23,38,60,115,205,33,15,149,142,202,19]},"announce":[],"urlList":[]}}